<?xml version="1.0" standalone="no"?>
<!DOCTYPE svg PUBLIC "-//W3C//DTD SVG 20010904//EN"
 "http://www.w3.org/TR/2001/REC-SVG-20010904/DTD/svg10.dtd">
<svg version="1.0" xmlns="http://www.w3.org/2000/svg"
 width="700.000000pt" height="700.000000pt" viewBox="0 0 700.000000 700.000000"
 preserveAspectRatio="xMidYMid meet">
<metadata>
Created by potrace 1.14, written by Peter Selinger 2001-2017
</metadata>
<g transform="translate(0.000000,700.000000) scale(0.100000,-0.100000)"
fill="#000000" stroke="none">
<path d="M2424 6227 c-228 -37 -400 -195 -455 -417 -11 -45 -13 -450 -13
-2310 1 -1240 3 -2266 6 -2280 41 -215 196 -380 409 -437 58 -15 163 -16 1134
-17 853 0 1081 3 1125 14 197 47 363 213 411 410 10 45 13 468 14 2280 0 1224
-3 2253 -7 2287 -15 128 -102 283 -202 360 -56 43 -149 88 -216 104 -44 10
-272 13 -1106 13 -579 1 -1074 -3 -1100 -7z m2201 -293 c59 -32 104 -79 131
-137 l24 -52 -3 -2255 c-2 -2139 -3 -2257 -20 -2291 -25 -49 -78 -104 -129
-131 l-43 -23 -1060 -3 c-969 -2 -1064 -1 -1113 14 -61 20 -127 77 -157 139
-20 39 -20 71 -23 2290 -2 2089 -1 2253 15 2297 23 64 77 122 143 152 l55 26
1070 -3 1070 -2 40 -21z"/>
<path d="M3420 4730 c0 -6 -20 -45 -43 -88 -56 -98 -103 -185 -210 -382 -22
-41 -60 -110 -84 -153 -24 -43 -48 -88 -54 -100 -5 -12 -15 -31 -22 -42 -7
-11 -36 -65 -66 -120 -73 -136 -107 -198 -152 -277 l-38 -68 342 -2 342 -3 0
-618 c0 -339 2 -617 5 -617 3 0 29 44 57 98 70 128 121 222 197 362 35 63 76
139 92 168 16 30 40 75 54 100 63 115 105 191 130 237 15 28 42 77 60 110 18
33 46 84 62 112 l29 53 -343 2 -342 3 -1 618 c0 339 -3 617 -7 617 -5 0 -8 -5
-8 -10z"/>
</g>
</svg>
