<?xml version="1.0" standalone="no"?>
<!DOCTYPE svg PUBLIC "-//W3C//DTD SVG 20010904//EN"
 "http://www.w3.org/TR/2001/REC-SVG-20010904/DTD/svg10.dtd">
<svg version="1.0" xmlns="http://www.w3.org/2000/svg"
 width="700.000000pt" height="700.000000pt" viewBox="0 0 700.000000 700.000000"
 preserveAspectRatio="xMidYMid meet">
<metadata>
Created by potrace 1.14, written by Peter Selinger 2001-2017
</metadata>
<g transform="translate(0.000000,700.000000) scale(0.100000,-0.100000)"
fill="#000000" stroke="none">
<path d="M1847 6524 c-1 -1 -46 -4 -101 -8 -485 -31 -916 -325 -1130 -768 -50
-105 -98 -245 -111 -328 -3 -19 -8 -42 -10 -50 -2 -8 -7 -44 -10 -80 -8 -83
-9 -3483 -1 -3570 44 -468 330 -886 753 -1099 96 -48 255 -102 338 -115 22 -4
47 -8 55 -11 8 -2 47 -7 85 -10 96 -8 3482 -8 3570 0 158 15 338 66 476 135
189 96 379 254 491 411 10 13 31 43 47 65 62 88 167 331 185 429 5 28 8 42 21
105 2 14 7 52 10 85 8 79 8 3494 1 3565 -21 190 -63 336 -146 501 -145 287
-424 537 -725 650 -71 27 -181 58 -225 65 -19 3 -41 7 -48 9 -40 14 -380 17
-1875 19 -907 0 -1649 0 -1650 0z m3480 -429 c387 -73 683 -362 764 -745 17
-80 18 -185 16 -1875 l-2 -1790 -23 -82 c-106 -375 -413 -649 -788 -703 -57
-8 -576 -10 -1844 -8 l-1765 3 -80 23 c-216 61 -409 194 -534 365 -55 75 -124
221 -153 322 l-23 80 -2 1785 c-2 1532 0 1796 12 1860 39 199 124 359 266 500
83 83 153 133 257 185 52 25 160 65 184 67 2 0 28 6 58 13 44 11 397 13 1816
14 1542 1 1771 -1 1841 -14z"/>
<path d="M3344 5441 c-24 -11 -1382 -1751 -1397 -1791 -16 -43 -1 -96 36 -122
l31 -22 696 -1 c767 -1 745 -3 775 61 14 29 15 137 13 928 l-3 896 -26 26
c-28 28 -89 40 -125 25z"/>
<path d="M3588 3500 c-39 -7 -76 -44 -83 -82 -3 -18 -4 -430 -3 -915 l3 -883
28 -27 c23 -23 36 -28 78 -28 59 0 56 -3 219 210 58 76 110 142 115 149 6 6
75 94 154 196 78 102 150 194 159 205 10 11 71 89 136 174 66 85 125 162 132
170 7 9 130 167 273 351 220 282 261 340 261 368 0 41 -23 88 -53 104 -17 9
-183 12 -707 13 -377 0 -697 -2 -712 -5z"/>
</g>
</svg>
