<?xml version="1.0" standalone="no"?>
<!DOCTYPE svg PUBLIC "-//W3C//DTD SVG 20010904//EN"
 "http://www.w3.org/TR/2001/REC-SVG-20010904/DTD/svg10.dtd">
<svg version="1.0" xmlns="http://www.w3.org/2000/svg"
 width="700.000000pt" height="700.000000pt" viewBox="0 0 700.000000 700.000000"
 preserveAspectRatio="xMidYMid meet">
<metadata>
Created by potrace 1.14, written by Peter Selinger 2001-2017
</metadata>
<g transform="translate(0.000000,700.000000) scale(0.100000,-0.100000)"
fill="#000000" stroke="none">
<path d="M2055 6232 c-319 -16 -648 -162 -878 -388 -225 -222 -347 -468 -403
-814 -4 -25 -8 -704 -8 -1510 -2 -1610 -3 -1572 59 -1785 116 -399 435 -738
831 -883 89 -33 229 -67 319 -78 76 -9 2915 -11 3010 -2 39 3 84 9 100 12 17
3 48 8 70 12 75 11 250 75 348 127 298 157 536 429 645 737 44 125 50 146 68
250 15 86 17 233 18 1545 1 798 -2 1486 -6 1530 -26 285 -135 549 -313 760
-223 265 -535 434 -885 481 -50 6 -2855 13 -2975 6z m3000 -287 c90 -17 179
-44 261 -80 61 -27 171 -91 192 -112 7 -7 17 -13 21 -13 17 0 179 -168 223
-230 85 -120 165 -296 182 -401 3 -19 10 -56 15 -84 6 -31 10 -598 10 -1530 0
-1523 0 -1510 -38 -1655 -76 -287 -291 -549 -566 -688 -53 -26 -203 -79 -246
-86 -19 -3 -56 -10 -84 -15 -63 -13 -2979 -14 -3050 -1 -27 5 -64 11 -82 14
-42 8 -198 63 -248 88 -165 83 -345 245 -432 387 -29 47 -104 199 -107 214 -1
7 -4 17 -8 22 -11 19 -47 180 -53 240 -7 69 -7 2871 0 2957 10 119 55 277 113
393 122 244 377 462 637 543 167 52 106 50 1700 51 1244 0 1493 -2 1560 -14z"/>
<path d="M3140 4728 c-195 -358 -375 -687 -399 -732 -24 -45 -90 -166 -147
-270 -57 -104 -106 -196 -109 -205 -4 -15 41 -16 503 -16 l507 0 5 -935 5
-935 28 49 c15 27 27 50 27 52 0 1 47 87 103 191 115 209 104 187 357 653 202
372 226 415 262 480 78 141 238 438 238 442 0 3 -229 4 -510 4 l-510 -1 -2
937 -3 937 -355 -651z"/>
</g>
</svg>
